<?xml version="1.0"?>
<svg xmlns="http://www.w3.org/2000/svg" xmlns:xlink="http://www.w3.org/1999/xlink" id="Gradient" viewBox="0 0 512 512" width="512" height="512"><defs><linearGradient id="linear-gradient" x1="256" y1="496" x2="256" y2="16" gradientUnits="userSpaceOnUse"><stop offset="0" stop-color="#12c2e9"/><stop offset="0.5" stop-color="#c471ed"/><stop offset="1" stop-color="#f64f59"/></linearGradient></defs><path d="M256,16A240,240,0,0,0,86.294,425.706,240,240,0,0,0,425.706,86.294,238.432,238.432,0,0,0,256,16Zm0,16a227.794,227.794,0,0,1,26.168,1.516L295.034,49.6l-14.026,42.08L255.25,117.437,228.8,97.6A8,8,0,0,0,224,96H196.529L174.86,59.884a8.006,8.006,0,0,0-4.33-3.473l-9.8-3.266A223.231,223.231,0,0,1,256,32ZM97.608,414.392a222.489,222.489,0,0,1-60.35-109.82l45.085,45.085a7.986,7.986,0,0,0,2.079,1.5L128,372.944V400a8,8,0,0,0,3.884,6.86l36.832,22.1,5.981,35.888A223.452,223.452,0,0,1,97.608,414.392Zm86.283,8.293a8,8,0,0,0-3.775-5.545L144,395.471V368a8,8,0,0,0-4.422-7.155l-46.839-23.42-59.7-59.7Q32.01,266.96,32,256A222.533,222.533,0,0,1,97.608,97.608a227.866,227.866,0,0,1,17.294-15.6l21.509,64.525a7.992,7.992,0,0,0,1.932,3.127l32,32a8.05,8.05,0,0,0,1.541,1.2l34.285,20.571-20.917,55.778L141.1,296H104a8,8,0,0,0-7.589,10.53l8,24a8,8,0,0,0,4.011,4.625l48,24a7.972,7.972,0,0,0,2.589.783c1.338.166,1.363.172,54.166-7.448l48.749,48.75-19.587,32.646L190.11,460ZM376,445.233A222.5,222.5,0,0,1,256,480a225.363,225.363,0,0,1-56.034-7.039l51.612-25.806a8.006,8.006,0,0,0,3.282-3.039l24-40a8,8,0,0,0-1.2-9.773l-56-56a8,8,0,0,0-6.8-2.261c-18.553,2.677-45.52,6.554-53.477,7.664l-42.838-21.419L115.1,312H144a8,8,0,0,0,5.122-1.854l48-40a8.013,8.013,0,0,0,2.369-3.337l24-64a8,8,0,0,0-3.375-9.669L180.96,169.647l-29.968-29.968L128.383,71.85q6.45-4.491,13.168-8.5l-.081.243,21.193,7.065,22.477,37.462A8,8,0,0,0,192,112h29.333L251.2,134.4a8,8,0,0,0,10.457-.743l32-32a7.992,7.992,0,0,0,1.932-3.127l16-48A8,8,0,0,0,310.247,43l-4.364-5.455A221.386,221.386,0,0,1,383.11,71.5L348.422,88.845a7.994,7.994,0,0,0-3.078,2.717l-16,24A8,8,0,0,0,328,120v34.584l-34.971,13.988a8,8,0,0,0-4.79,5.488l-16,64a7.991,7.991,0,0,0-.13,3.255l8,48a7.993,7.993,0,0,0,.736,2.263l24,48a8,8,0,0,0,8.147,4.36l51.4-6.425L352.411,373.47a8,8,0,0,0,3.151,9.186L376,396.281Zm38.392-30.841A227.48,227.48,0,0,1,392,434.018V392a8,8,0,0,0-3.562-6.656l-18.917-12.611,14.068-42.2a8,8,0,0,0-8.581-10.468l-58.384,7.3L295.693,285.5l-7.528-45.172,14.6-58.417,36.2-14.481A8,8,0,0,0,344,160V122.422l13.478-20.217,39.92-19.96a228.244,228.244,0,0,1,16.994,15.363,224,224,0,0,1,0,316.784Z" style="fill:url(#linear-gradient)"/></svg>
